<?xml version="1.0" standalone="no"?><svg xmlns="http://www.w3.org/2000/svg" viewBox="0 0 1440 320"><path fill="#0099ff" fill-opacity="1" d="M0,128L34.3,128C68.6,128,137,128,206,133.3C274.3,139,343,149,411,165.3C480,181,549,203,617,208C685.7,213,754,203,823,208C891.4,213,960,235,1029,224C1097.1,213,1166,171,1234,154.7C1302.9,139,1371,149,1406,154.7L1440,160L1440,320L1405.7,320C1371.4,320,1303,320,1234,320C1165.7,320,1097,320,1029,320C960,320,891,320,823,320C754.3,320,686,320,617,320C548.6,320,480,320,411,320C342.9,320,274,320,206,320C137.1,320,69,320,34,320L0,320Z"></path></svg>